<svg width="91" height="85" viewBox="0 0 91 85" fill="none" xmlns="http://www.w3.org/2000/svg">
<path fill-rule="evenodd" clip-rule="evenodd" d="M12.1485 75.8929C11.343 75.8929 10.5705 75.573 10.0009 75.0037C9.43134 74.4344 9.11136 73.6623 9.11136 72.8571V12.1429C9.11136 11.3377 9.43134 10.5656 10.0009 9.99628C10.5705 9.42698 11.343 9.10714 12.1485 9.10714H68.3352C69.5435 9.10714 70.7022 8.62739 71.5566 7.77343C72.4109 6.91947 72.8909 5.76125 72.8909 4.55357C72.8909 3.34589 72.4109 2.18767 71.5566 1.33371C70.7022 0.47975 69.5435 1.79959e-08 68.3352 0H12.1485C8.92651 0 5.83649 1.27933 3.55821 3.55656C1.27993 5.83379 0 8.92237 0 12.1429V72.8571C0 76.0776 1.27993 79.1662 3.55821 81.4434C5.83649 83.7207 8.92651 85 12.1485 85H72.8909C76.1129 85 79.2029 83.7207 81.4812 81.4434C83.7595 79.1662 85.0394 76.0776 85.0394 72.8571V53.125C85.0394 51.9173 84.5594 50.7591 83.7051 49.9051C82.8507 49.0512 81.692 48.5714 80.4837 48.5714C79.2755 48.5714 78.1167 49.0512 77.2624 49.9051C76.408 50.7591 75.928 51.9173 75.928 53.125V72.8571C75.928 73.6623 75.608 74.4344 75.0385 75.0037C74.4689 75.573 73.6964 75.8929 72.8909 75.8929H12.1485ZM89.7773 22.3429C90.582 21.4797 91.0201 20.3379 90.9993 19.1583C90.9785 17.9786 90.5003 16.853 89.6657 16.0187C88.831 15.1844 87.7049 14.7065 86.5247 14.6857C85.3444 14.6649 84.2022 15.1028 83.3386 15.9071L49.578 49.6461L38.2009 37.8918C37.7858 37.4583 37.2891 37.111 36.7393 36.87C36.1895 36.629 35.5974 36.499 34.9972 36.4874C34.397 36.4759 33.8004 36.5831 33.2417 36.8028C32.683 37.0225 32.1733 37.3504 31.7418 37.7676C31.3104 38.1849 30.9657 38.6833 30.7276 39.2341C30.4895 39.785 30.3626 40.3775 30.3544 40.9775C30.3461 41.5775 30.4566 42.1732 30.6794 42.7304C30.9022 43.2876 31.2331 43.7953 31.6529 44.2243L46.2493 59.3057C46.6693 59.7411 47.1718 60.0885 47.7276 60.3276C48.2833 60.5667 48.8812 60.6928 49.4863 60.6985C50.0913 60.7041 50.6914 60.5892 51.2516 60.3605C51.8117 60.1318 52.3207 59.7939 52.7487 59.3664L89.7773 22.3429Z" fill="#03751C"/>
</svg>
